<svg height="18" viewBox="0 0 18 18" width="18" xmlns="http://www.w3.org/2000/svg"><g fill="#ffffff"><path d="m13.5423182 9c-.0289363.53162397-.1336231 1.0560626-.3107401 1.5566839-.2023516.5787217-.5141583 1.110926-.9175859 1.5661728-.3972259.4428587-.8817335.794368-1.4215019 1.0312968-.580334.2517383-1.20543858.3772489-1.83565949.36857-.68294534 0-1.30377517-.1288497-1.8624895-.386549-.540033-.2443785-1.02421766-.6016073-1.42150194-1.0487765-.3967638-.4534896-.70257096-.9824142-.90002439-1.5566838-.08556357-.2442543-.15339212-.4946438-.20293233-.74912605-1.57750512.31302095-3.13658884.71651995-4.66988265 1.20858995.09825551.457353.22868032.906835.39025448 1.3449309.42537738 1.1486599 1.0161251 2.1403363 1.77224315 2.9750292.75559419.835408 1.66815832 1.5060389 2.68299954 1.9716997 1.03157267.4787747 2.14721266.7181621 3.34691997.7181621s2.22542616-.2240719 3.07715656-.6722157c.8260642-.4268749 1.5555826-1.0262381 2.1415215-1.7594474v1.9716997h4.5889048v-8.12801729c-1.4757872-.234554-2.964724-.37217503-4.4576818-.41201931z"/><path d="m4.88660125 7.81541943c.04364475-.18741438.09747051-.37227318.16123425-.55374172.19336111-.56085605.495177-1.07752444.88799166-1.52012284.3918493-.43429904.86959205-.78115764 1.40249739-1.0182641.5502821-.25084855 1.16281184-.3761112 1.83758924-.37578794.62184151-.00788002 1.23854301.11430027 1.81111791.35881687.5325745.23021656 1.0106004.57166164 1.4024974 1.00177792.3678264.40832689.6581992.88115611.8567074 1.39502182 1.5910277.02414888 3.1788777.15112706 4.7537635.38015194v-7.01874899h-4.5275542v1.91433651c-.5743039-.72023619-1.2946673-1.30859696-2.1128907-1.72571521-.8403434-.43542913-1.85234902-.65314369-3.03601704-.65314369-1.18366801 0-2.28439263.23258445-3.30217385.69775335-1.00115201.45210917-1.90148662 1.10304324-2.6471296 1.91385163-.74536753.8113787-1.32821734 1.7743656-1.74854943 2.88896072-.40717666 1.07935995-.61573839 2.24583805-.62568518 3.4994343 1.60560024-.48660211 3.23703002-.88208353 4.88660125-1.18458057z"/></g></svg>