<svg height="33" viewBox="0 0 113 33" width="113" xmlns="http://www.w3.org/2000/svg"><g><path d="m17.2647015 22.125c-.0360906.642379-.1666601 1.2760757-.3875677 1.880993-.2523811.6992887-.641279 1.3423689-1.1444503 1.8924588-.4954364.5351209-1.0997339.9598613-1.772955 1.2461503-.7238162.3041838-1.5034719.4558425-2.2895091.4453554-.8517971 0-1.6261213-.1556933-2.32297251-.46708-.6735511-.2952906-1.27744587-.7269421-1.77295496-1.2672715-.49485992-.5479666-.87627505-1.1870839-1.12254698-1.880993-.10671836-.2951406-.19131688-.5976946-.25310544-.905194-1.96752847.3782337-3.91208101.865795-5.82446732 1.4603796.12254826.5526349.28521938 1.0957589.48674123 1.6251248.53054795 1.3879641 1.2673525 2.5862397 2.21041364 3.5948269.94240777 1.0094514 2.08059482 1.8197971 3.34634601 2.3824704 1.28661933.5785195 2.67809085.8677793 4.17441453.8677793 1.4963237 0 2.7756419-.2707536 3.8379547-.8122607 1.0303008-.5158071 1.9401858-1.2400377 2.6709925-2.1259988v2.3824704h5.7234685v-9.8213542c-1.8406617-.2834195-3.6977242-.4497115-5.5598018-.4978567z"/><path d="m6.09476756 19.8942743c.0544355-.234268.12156918-.4653415.20109791-.6921772.24116783-.70107.61760486-1.3469055 1.10753927-1.9001535.48873036-.5428738 1.08459052-.9764471 1.74925171-1.2728301.68633418-.3135607 1.45030615-.470139 2.29191595-.469735.775586-.00985 1.5447612.1428754 2.2588999.4485211.6642484.2877707 1.2604618.7145771 1.7492517 1.2522224.458768.5104086.8209327 1.1014452 1.0685202 1.7437773 1.9843943.0301861 3.9648254.1889088 5.9290869.4751899v-8.7734362h-5.6469495v2.3929206c-.7162952-.9002952-1.6147616-1.6357462-2.6352831-2.157144-1.0481103-.5442864-2.3103249-.8164296-3.7866437-.8164296-1.47631887 0-2.84918732.2907306-4.1186054.8721917-1.24867746.5651364-2.37161135 1.378804-3.30160756 2.3923145-.92965265 1.0142234-1.65660661 2.217957-2.18086187 3.6112009-.50784727 1.3492-.76797393 2.8072976-.78037997 4.3742929 2.00256983-.6082526 4.03735533-1.1026044 6.09476756-1.4807257z"/><path d="m24.3211921 22.875v9.375h5.9867549v-7.7382084c-1.9452967-.7014836-3.9476239-1.2489241-5.9867549-1.6367916z"/><path d="m53.5066225 25.2811916v6.9688084h5.6125828v-9c-2.1084491.5530323-3.9125981 1.2906091-5.6125828 2.0311916z"/><path d="m30.1041379 21.5385152v-.785299c0-.8098582.1217674-1.5168869.365302-2.1210859.2186529-.5653064.5504347-1.0803252.9751398-1.5136922.4070322-.4053065.8996681-.7149327 1.4419814-.9062985.5654672-.201245 1.1618137-.3025989 1.7622213-.2995038 1.3294267 0 2.3600427.4087229 3.0918483 1.2261686.7318055.8174457 1.097508 2.0070748 1.0971074 3.5688872v4.2367808c2.2182479.5846314 4.0711939.6672945 5.7847484.4354785v-4.6267347c0-.8098582.1219676-1.5168869.3659027-2.1210859.218427-.5654206.5502365-1.0804826.9751399-1.5136922.4069305-.4054334.899597-.7150788 1.4419813-.9062985.5652742-.2011882 1.1614136-.3025415 1.7616205-.2995038 1.3154074 0 2.3424186.4087229 3.0810334 1.2261686.7386149.8174457 1.1081226 2.0070748 1.1085232 3.5688872v1.6251077c1.7039412-.6900568 3.5779161-1.3609453 5.7625178-1.8599186v-1.6203156c0-1.237949-.2032793-2.3722697-.6098379-3.4029622-.3814115-.9926212-.9707005-1.8927695-1.7285751-2.6404254-.7684681-.743278-1.6811624-1.3221778-2.6820853-1.7011816-1.0414309-.4057278-2.1902094-.6083921-3.4463353-.6079959-.7024251-.000514-1.4034519.0624396-2.0944779.1880915-.6838693.1243753-1.3497837.332196-1.9827243.6187749-.6428757.2923155-1.2400487.6756417-1.7730362 1.1381144-.5676808.4963688-1.0541938 1.0780137-1.4419813 1.7239439-.714875-1.1400539-1.7207169-2.0702937-2.9146047-2.6955342-1.2184742-.6481262-2.6109876-.9721893-4.1775401-.9721893-1.2024446-.0048322-2.3935428.2318925-3.5022121.6960468-1.1079223.4644306-2.0462115 1.2631074-2.8148677 2.3960304v-2.518827h-5.6297353v8.9455795c1.9627871.3623295 3.8957818.8698947 5.7829458 1.5184843z"/><path d="m43.0961792 28.23c-1.4083908-.0072738-2.8114062-.1682981-4.1822719-.48v4.5h5.986755v-4.1202c-.5990866.0658524-1.2015227.0993047-1.8044831.1002z"/><path d="m66.7834484 19.6898692c.0240065-.0749914.0486133-.1499829.0750205-.2237549.2487896-.7067152.6326506-1.3564964 1.1295084-1.911977.4855828-.5379444 1.0771562-.9660737 1.7362742-1.2565639.6717835-.2999658 1.4209881-.4499487 2.2476138-.4499487.8554336 0 1.6228432.1575024 2.3022288.4725071.6608221.3003605 1.2533817.7362637 1.7404753 1.2803417.4894218.5567087.8655484 1.2063108 1.1067022 1.9113673.15483.4424022.2632601.9001708.3234884 1.3656978.4857326.100395.9796675.2083095 1.4818046.3237435 1.4812296.3448187 2.9943362.5287574 4.5138328.5487179-.010803-1.59494-.2758754-3.0785105-.7952172-4.4507117-.530945-1.4018725-1.2615445-2.61271-2.1917986-3.6325123-.9298629-1.0194161-2.0525405-1.8378738-3.3009015-2.4064327-1.2699468-.5844862-2.6427217-.8769325-4.1183247-.8773389-1.446395 0-2.6787315.2623684-3.6970096.7871053-.9928513.5041061-1.8743647 1.208143-2.5909076 2.069276v-12.8643857h-5.756172v19.8148122c1.9139444-.3311165 3.8518826-.4983519 5.7933822-.499943z"/><path d="m78.5088189 23.9276818c-.3613368-.0803536-.7176044-.1570912-1.0688027-.2302129-.0298072.0964242-.0608311.1928485-.0967215.2880675-.2462159.6928486-.627331 1.3310718-1.1217257 1.8784652-.49387.5376183-1.0944327.9684625-1.7641023 1.2655685-.6894193.3109683-1.4672465.4664524-2.3334816.4664524-.8382527 0-1.5976278-.1482523-2.2781252-.4447569-.6698404-.2872853-1.2709648-.7113451-1.7641023-1.2444757-.5034737-.5491661-.8925294-1.191423-1.1448416-1.8899157-.1797257-.489618-.2992086-.9989179-.355862-1.5168742-1.8762775.0149283-3.7474276.1964502-5.5909878.5423865v9.403174h5.722383v-2.3798715c.7282718.8825612 1.6337228 1.6055597 2.658928 2.1231419 1.054406.5407794 2.3373342.8111691 3.8487846.8111691 1.4956343 0 2.8870447-.288871 4.1742311-.8666131 1.2653689-.5621621 2.4032936-1.3713857 3.3457113-2.3792688.9428823-1.0076336 1.679547-2.2042989 2.2099944-3.589996.2028543-.5299539.3667155-1.0737618.4902988-1.6271595-1.6604422-.037151-3.3127816-.2412923-4.9315785-.6092808z"/><path d="m84.5629139 21.375c2.0518858-.112301 4.0723609-.5339733 5.986755-1.2494334v-9.2505666h-5.986755z"/><path d="m84.8818914 6.43406509c.340492.33886186.7456646.60595997 1.191476.78544544.9453941.37398596 1.9979656.37398596 2.9433597 0 .445625-.17949822.8505958-.44659981 1.1908668-.78544544.7035725-.70625688 1.0960251-1.66364421 1.0904193-2.65992829.0026609-.5081833-.0967648-1.01174331-.2924472-1.48084755-.4885718-1.14945668-1.5160791-1.98208785-2.7429157-2.22269668-1.2268367-.24060883-2.4932826.14212918-3.3807589 1.0217135-.3410678.3428363-.6086403.75147143-.7863984 1.20098318-.1884646.47087402-.2838253.97375176-.2808131 1.48084755-.0038203.50381539.0915944 1.00346349.2808131 1.47050473.1798925.44499239.4472962.84943915.7863984 1.18942356z"/><path d="m84.5629139 24.3425827v7.9074173h5.986755v-9c-1.9353687.6233647-3.9492428.9908967-5.986755 1.0925827z"/><path d="m102.897351 10.125c-1.615706.0068341-3.0926269.2846208-4.4307612.8333601-1.3143583.5297341-2.5015326 1.3253285-3.484937 2.3354586-.970076 1.000997-1.7255533 2.2021934-2.2664318 3.6035892-.3206056.8402322-.5449537 1.7131858-.6688634 2.6025921 3.8864181-1.8146588 7.5034159-4.9396588 10.8509934-9.375z"/><path d="m110.082371 13.5332906c-1.168444-1.2443329-2.644698-2.1610401-4.280878-2.6582906-.186911.2678106-.377239.5354211-.570984.8028314-.937785 1.2960447-1.947472 2.5389535-3.02435 3.7229278.089235-.0036028.176059-.0096075.267706-.0096075 1.259743 0 2.290169.3692904 3.091276 1.1078713.801107.7385808 1.33491 1.801817 1.60141 3.1897085h-9.5397251c.0060294-.0342269.0150735-.066052.0217058-.0996784-1.9185567 1.4479387-3.9106721 2.5826311-5.9763463 3.4040771.0894874 1.1563857.3497435 2.293304.7723668 3.3740535.547872 1.3810861 1.3150133 2.5620149 2.3014239 3.5427862 1.0075998.9962725 2.2119816 1.7732782 3.5368491 2.2817945 1.3718906.5388237 2.8806488.8082356 4.5262748.8082356 1.824096 0 3.503285-.2620061 5.037567-.7860182 1.539902-.5266737 2.952683-1.3671914 4.148231-2.4679408l-3.400584-3.7229279c-.774729.6579678-1.659398 1.1754178-2.613747 1.5288023-.905034.3447048-1.864883.5247023-2.833821.5314179-.653615.0038753-1.304661-.0817941-1.934836-.2546002-.592328-.1620829-1.147585-.4367395-1.6351745-.8088361-.493314-.3819095-.9117114-.8511122-1.2342192-1.3840885-.3412644-.554436-.5858572-1.2227616-.7337786-2.0049768h15.2803213c.029343-.2509974.055269-.5536354.077779-.907914.022309-.3548791.033162-.7013516.033162-1.0412189 0-1.6685122-.255848-3.1969142-.767543-4.585206-.511696-1.3882918-1.228391-2.5760259-2.150086-3.5632022z"/></g></svg>