<svg height="436" viewBox="0 0 454 436" width="454" xmlns="http://www.w3.org/2000/svg"><g fill="none" fill-rule="evenodd" opacity=".626895" stroke="#fff"><g stroke-width="2"><path d="m61.0812815.89790108c4.3823601-.2857919 8.6972424-1.28471548 13.0158221-.73604895 4.4045446.5661915 8.5807739 2.67458082 12.6137283 4.0833192 4.316731 1.50310364 8.5853957 2.3955293 12.3965053 4.74792019 4.1013568 2.52898868 7.5630608 6.50446188 10.9831688 9.87060518 3.702036 3.6438468 7.440121 6.8738345 10.221501 11.3090013 2.999527 4.7883624 4.828823 10.6417041 6.599884 16.1148887 1.852405 5.7266226 3.659516 11.3642723 4.01077 17.5654174.44369 7.8296196-1.087039 15.0013787-2.920032 21.5247137-1.832993 6.5233349-4.283455 13.2138312-8.225822 18.2785492-3.588341 4.60772-8.280359 7.553264-13.187752 10.74281-4.379587 2.859267-9.0642111 6.23215-14.2008437 7.952294-4.758572 1.594773-9.8018448 1.596121-14.9865438 2.193318-4.9434427.558103-10.0939406 1.726884-15.2250271 1.397954-4.7465554-.304665-9.198242-2.053118-13.5741316-3.122142-4.7289927-1.160692-9.4145407-1.695878-13.6055597-3.686985-4.5958857-2.18523-8.5317831-5.845253-12.3512119-8.922908-4.2658915-3.436244-8.4633809-6.536816-11.593242-10.9625464-3.44321691-4.8665508-5.5202393-10.8627885-7.38003861-16.7687051-1.91526052-6.0353318-3.67245659-12.3672402-3.67245659-19.2666881 0-7.9940848 2.24802779-15.3923204 5.03957547-22.4252278 2.57340023-6.4909811 5.62191823-13.1113775 10.12629293-18.3553893 4.0218623-4.6859087 9.1686627-7.9064599 14.4097473-11.2874321 4.7576476-3.07091484 9.6576457-6.55164451 15.1834311-8.3162747 5.1310865-1.63925921 10.7178792-1.56376701 16.3222347-1.92909534z" opacity=".91" transform="translate(159 159)"/><path d="m72.652475 2.48309178c5.5049956-.58880679 10.9491116-2.91139799 16.5029954-2.41369988 5.6295222.51401609 10.9112926 3.83200352 16.0454756 5.46516045 5.527134 1.75146222 11.117914 1.96631551 15.986441 4.85731605 5.254098 3.1167324 9.452948 8.8470599 13.837205 13.0897324 4.737543 4.5867097 9.865269 8.0352409 13.455324 13.679899 3.85571 6.0662057 5.81954 14.0008191 8.184622 20.9685927 2.472082 7.2832544 5.438581 14.1694382 6.123939 22.0632566.904892 10.4203843-1.262792 19.7651424-3.293958 28.1349019-2.199969 9.063273-4.763371 17.938889-9.844054 24.383128-4.636077 5.878549-11.019215 8.753232-17.458621 12.54308-5.703316 3.375101-11.711952 8.133149-18.381963 9.960762-6.171904 1.694349-12.704475.519455-19.3615713.943722-6.3969746.390272-13.0697525 2.379705-19.6087797 1.701149-5.7549711-.598326-11.0173706-3.736815-16.268701-5.126563-5.7383676-1.52573-11.5440718-1.377508-16.5758665-3.811606-5.5898582-2.706063-10.1032536-7.972688-14.6913649-11.713583-5.1775369-4.220915-10.586601-7.337648-14.3223973-12.79057-4.09738447-5.979176-6.02431742-13.821321-8.18646718-21.179366-2.17967571-7.3417275-4.79473312-14.9445421-4.79473312-23.4869999 0-9.6847158 3.2072503-18.4610645 6.45877671-27.0279993 3.0116975-7.9468519 6.09718849-16.5967363 11.39463989-23.0872093 4.7421553-5.8159968 11.1843284-9.16798 17.3922072-13.4568867 5.6415136-3.8999951 11.2212252-9.13262447 17.7999163-11.50144992 6.10918-2.20020643 12.9110965-1.47813621 19.6078573-2.19340727z" opacity=".82" transform="translate(144 142)"/><path d="m84.224472 4.05757144c6.6277289-.88339851 13.2001961-4.45714703 19.987263-4.02080171 6.853381.44973016 13.238879 4.88813843 19.47425 6.70579779 6.737331 1.95552307 13.646895 1.4924081 19.5728 4.84798398 6.40576 3.6246108 11.342479 10.9568185 16.689056 15.9680973 5.773013 5.4114851 12.286535 8.9932646 16.686293 15.7017393 4.711066 7.1876515 6.809172 16.996052 9.76844 25.2772438 3.090975 8.6519515 7.221793 16.6092305 8.234004 25.9946704 1.373255 12.7370007-1.429438 24.0190697-3.668461 34.0135197-2.501516 11.16696-5.245263 22.194718-11.463134 29.852177-5.683673 6.997587-13.754656 9.730769-21.725246 14.024621-7.026535 3.805306-14.35793 9.823124-22.558778 11.713061-7.582836 1.750735-15.603162-.560824-23.732169-.319897-7.849014.215495-16.0434145 2.978123-23.9882158 1.959538-6.7640413-.867337-12.8373104-5.317791-18.9630782-6.990894-6.7465418-1.851122-13.6736053-1.029294-19.545169-3.842784-6.5835195-3.15748-11.6749711-9.892725-17.0316792-14.199962-6.0889266-4.896169-12.7092873-7.953263-17.0500998-14.293655-4.7525126-6.938694-6.53009975-16.423182-8.99477494-25.045687-2.4434915-8.461887-5.91577306-17.140608-5.91577306-27.1069491 0-11.1281443 4.16581684-21.0610236 7.87572403-30.9417021 3.44925587-9.1993909 6.57338817-19.6529399 12.66507787-27.2247359 5.4635476-6.7968147 13.1992751-10.1965604 20.3731746-15.2827943 6.5254946-4.6284728 12.7857328-11.4721343 20.417384-14.38467242 7.0864016-2.70373484 15.1030432-1.36525225 22.8940325-2.40391474z" opacity=".73" transform="translate(129 130)"/><path d="m96.2209899 5.72640092c7.7833951-1.20083123 15.5187391-6.08906339 23.5738101-5.70495912 8.112362.39623387 15.634247 6.04728362 23.002738 8.08775329 7.982069 2.20219781 16.245978 1.05662366 23.258704 4.95022791 7.590265 4.2116696 13.288971 13.298094 19.626206 19.1836495 6.837153 6.3518716 14.772095 10.148439 20.003224 18.0609868 5.590591 8.4624234 7.833295 20.3507874 11.402032 30.1218607 3.725829 10.2050439 9.045668 19.4033302 10.386486 30.480358 1.853673 15.321043-1.599556 28.782213-4.062188 40.613972-2.811004 13.506993-5.752302 26.916949-13.139273 35.950811-6.760456 8.265655-16.561085 10.922039-26.102975 15.812967-8.385885 4.316792-17.076712 11.721244-26.851467 13.717239-9.033654 1.846396-18.582013-1.645584-28.223702-1.578197-9.341368.047171-19.099489 3.644273-28.489833 2.26015-7.8074212-1.150965-14.7212719-7.005522-21.7534028-8.997474-7.7889398-2.215675-15.8726562-.70756-22.6137069-3.960991-7.6105953-3.676619-13.3056049-12.019094-19.4580265-16.985494-7.0302828-5.676657-14.896844-8.745448-19.8646148-16.10812-5.4307272-8.045974-7.06816952-19.37368-9.84775559-29.446646-2.71952186-9.762987-7.06724541-19.705223-7.06724541-31.310563 0-12.8129092 5.14611529-24.1150087 9.33397567-35.5235792 3.90509663-10.6497961 7.08295453-23.1284676 13.99865333-31.9439974 6.2124858-7.9246775 15.2812549-11.4490026 23.4583018-17.4410291 7.4433397-5.4556283 14.4154064-14.0528251 23.1376514-17.56906381 8.1003495-3.26556011 17.3714888-1.29112942 26.2951799-2.6671661z" opacity=".64" transform="translate(112 111)"/><path d="m107.791426 7.37200249c8.904722-1.51310007 17.768842-7.6881113 27.056513-7.35935225 9.335654.33953804 17.960777 7.16937263 26.429952 9.41948582 9.19078 2.43470334 18.773737.61036004 26.843353 5.01627034 8.741391 4.7710484 15.176783 15.5581179 22.476809 22.2828574 7.872143 7.2529098 17.192111 11.2370923 23.231635 20.3076084 6.445542 9.6849184 8.823518 23.5817252 12.985207 34.7824384 4.344397 11.6951994 10.833309 22.0767094 12.494293 34.7783964 2.329069 17.812273-1.75972 33.371738-4.436674 46.966734-3.105118 15.768308-6.234228 31.477332-14.757846 41.831895-7.806626 9.482812-19.295101 12.041474-30.366485 17.498335-9.707531 4.802038-19.721421 13.547837-31.026265 15.634918-10.444824 1.930786-21.479296-2.724388-32.592205-2.834873-10.792707-.123958-22.072636 4.291383-32.867189 2.546535-8.816136-1.425521-16.5397133-8.654178-24.4469216-10.954144-8.7976805-2.566746-18.0013795-.378611-25.5819276-4.052898-8.603899-4.172815-14.877806-14.073313-21.7976515-19.668954-7.9413508-6.42158-17.0186303-9.480117-22.5912329-17.81901-6.0856622-9.1042-7.5740887-22.206057-10.65706024-33.665466-2.98331248-11.003996-8.18773016-22.146773-8.18773016-35.318693 0-14.415545 6.10319478-27.0175264 10.7511827-39.8808981 4.3434741-12.0333897 7.5593244-26.462409 15.2681374-36.4653074 6.933687-9.0018002 17.2954611-12.6275814 26.43918-19.4870582 8.3270683-6.2491167 15.9795924-16.5497846 25.7535626-20.6484938 9.0782024-3.80632917 19.5627048-1.20994107 29.5793633-2.91302076z" opacity=".55" transform="translate(96 99)"/><path d="m119.36439 8.90850574c10.025842-1.80659395 20.018501-9.17132452 30.539321-8.90126666 10.557689.2793702 20.28765 8.18820749 29.856306 10.61872822 10.400071 2.6340619 21.301572.1623008 30.426867 5.0206816 9.892189 5.2641327 17.064302 17.5976618 25.326842 25.0661585 8.905919 8.0525134 19.61201 12.1725586 26.459669 22.2724565 7.300236 10.7703863 9.812918 26.4789735 14.567289 38.9521881 4.962686 13.021312 12.619638 24.440901 14.600472 38.590336 2.80672 20.048138-1.919077 37.48882-4.811519 52.654631-3.396638 17.803864-6.71677 35.589103-16.375757 47.11911-8.85338 10.565515-22.026987 12.998696-34.629112 18.946621-11.029624 5.221562-22.364347 15.183105-35.199674 17.334256-11.854587 1.988849-24.375598-3.756865-36.959288-4.040226-12.243565-.290013-25.043865 4.879666-37.243187 2.799024-9.825822-1.676222-18.359356-10.174397-27.1417609-12.748594-9.8055444-2.881504-20.1300322-.047892-28.5501908-4.092108-9.5972295-4.609608-16.4494966-15.926762-24.1387098-22.074237-8.852458-7.077378-19.140076-10.086594-25.3176242-19.288516-6.7398139-10.036042-8.0809557-24.726924-11.46653235-37.411661-3.24731459-12.091408-9.30780095-24.282592-9.30780095-38.836449 0-15.819005 7.06058183-29.546724 12.1679818-43.6881774 4.7811016-13.2501295 8.0376336-29.4243336 16.5398277-40.4767508 7.6551087-9.9548915 19.3096774-13.6332657 29.4193982-21.2667238 9.2110176-6.956318 17.5445319-18.8095964 28.3713719-23.432508 10.0553378-4.29298876 21.7532284-1.1161505 32.8648884-3.11830359z" opacity=".45" transform="translate(80 80)"/><path d="m131.343549 10.6029538c11.180395-2.13317545 22.336773-10.8157614 34.125933-10.5989644 11.816873.22482652 22.683187 9.35438899 33.384145 12.0081448 11.645052 2.8825972 23.90164-.2796948 34.114848 5.1174798 11.076933 5.8521807 19.010274 19.9506769 28.264608 28.3000378 9.97118 8.9957372 22.09844 13.3303389 29.777745 24.6412539 8.179988 12.0509689 10.836753 29.8510731 16.200165 43.8210973 5.598049 14.581605 14.450543 27.244156 16.757198 43.095763 3.29509 22.644581-2.083103 42.278092-5.202676 59.288626-3.697854 20.159445-7.221115 40.337625-18.050477 53.250429-9.930534 11.839524-24.835572 14.190835-39.009908 20.737569-12.389611 5.734415-25.08499 17.09083-39.493964 19.345787-13.305991 2.084998-27.356542-4.851168-41.453281-5.311527-13.736469-.461697-28.10572 5.591222-41.74704 3.100733-10.870932-1.928423-20.240737-11.87432-29.92832-14.7703-10.8469137-3.24794-22.3275345.278357-31.6160477-4.207467-10.6233617-5.130863-18.0772665-18.065079-26.5611756-24.875448-9.7938157-7.862237-21.3261676-10.87866-28.1306618-21.106928-7.4178777-11.148986-8.6150844-27.692471-12.3147856-41.832453-3.52326099-13.39859-10.4598543-26.857401-10.4598543-43.055616 0-17.508365 8.04234669-32.611889 13.6256161-48.285509 5.2359317-14.7060633 8.5421066-32.9170112 17.8675706-45.2168952 8.4026172-11.0860885 21.3899079-14.8880654 32.5010204-23.4301348 10.1263731-7.7872947 19.1700872-21.405358 31.0858039-26.635251 11.067695-4.85785864 24.018035-1.0465139 36.26169-3.3817655z" opacity=".36" transform="translate(63 62)"/><path d="m142.910344 12.3761657c12.297312-2.50215173 24.584473-12.53916137 37.606188-12.3761657 13.039248.17242791 25.008041 10.5840841 36.808884 13.4771124 12.852841 3.1473011 26.427317-.7303578 37.696623 5.239641 12.227179 6.4771916 20.896941 22.436862 31.113325 31.7178161 11.004461 9.9977867 24.517109 14.567933 33.004155 27.1625474 9.034271 13.4088282 11.825759 33.4179271 17.782471 48.9759001 6.216021 16.235584 16.25615 30.215173 18.862154 47.877659 3.799192 25.378581-2.21658 47.35153-5.578362 66.308373-3.958838 22.658674-7.703584 45.351161-19.667764 59.731095-10.975854 13.189721-27.566982 15.47006-43.270371 22.655969-13.710128 6.283782-27.726627 19.109677-43.665332 21.481987-14.715063 2.191073-30.251424-5.987581-45.818238-6.630026-15.186618-.637034-31.07549 6.300012-46.120919 3.421862-11.879281-2.227592-22.058753-13.657691-32.62119-16.892906-11.855288-3.635558-24.4552807.611337-34.583076-4.344276-11.6162813-5.684618-19.6483843-20.322882-28.9004368-27.838805-10.7045491-8.695315-23.4466537-11.734415-30.8549399-23.053608-8.0717836-12.332227-9.1219368-30.835977-13.1241462-46.521087-3.78719564-14.788393-11.5793691-29.599778-11.5793691-47.54494 0-19.307144 8.99828084-35.87815 15.041737-53.18222 5.673411-16.254519 9.0195054-36.6193285 19.1389955-50.244559 9.1228596-12.2875937 23.4032817-16.2328783 35.480966-25.7397023 11.0099979-8.668265 20.734527-24.1437352 33.7027195-30.0150004 12.044463-5.4533382 26.20492-1.0089757 39.545003-3.6653141z" opacity=".27" transform="translate(48 47)"/><path d="m154.485291 14.0482803c13.418471-2.8168075 26.834175-14.15713096 41.088015-14.0482803 14.262138.11449063 27.333921 11.7201165 40.235126 14.8279445 14.062055 3.383959 28.95487-1.180325 41.278877 5.3128156 13.3779 7.0454027 22.78549 24.7286189 33.963399 34.8615458 12.039096 10.9125911 26.935599 15.6758518 36.231622 29.4458578 9.888895 14.6498354 12.816377 36.6956513 19.365638 53.7047833 6.834172 17.748188 18.037898 32.929982 20.968146 52.241559 4.270897 27.90548-2.380711 52.004683-5.953622 72.752412-4.256143 24.9479-8.185884 49.97566-21.287172 65.696181-12.0225 14.42514-30.299207 16.609824-47.531241 24.371272-15.032043 6.777394-30.370204 20.96295-47.83828 23.429179-16.125585 2.278081-33.147393-7.076535-50.184877-7.89816-16.637317-.80809-34.047305 6.953359-50.495604 3.714233-12.888296-2.50819-23.879031-15.326627-35.316034-18.873016-12.863401-3.991718-26.584301.942094-37.5519852-4.439754-12.6098399-6.188585-21.2207857-22.407223-31.241533-30.561211-11.6149571-9.452074-25.5682114-12.484102-33.5816743-24.794945-8.7271231-13.405892-9.6298017-33.710999-13.9348136-50.804053-4.05145044-16.049441-12.6992779-32.081285-12.6992779-51.616204 0-20.937231 9.95528234-38.828899 16.4584412-57.611225 6.1122133-17.658852 9.4988718-40.0038104 20.4121553-54.835026 9.8446373-13.3828811 25.4179187-17.4314497 38.4620401-27.8215574 11.8943357-9.4737317 22.3004963-26.6750722 36.3219814-33.1370803 13.022915-6.0017898 28.396113-.9258512 42.830673-3.9159174z" opacity=".18" transform="translate(31 31)"/><path d="m166.850711 15.3756339c14.607735-3.0626409 29.22195-15.428451 44.782302-15.3756339 15.557575.05580598 29.801482 12.575278 43.868566 15.8233729 15.343722 3.5408474 31.630805-1.59358 45.074846 5.2655699 14.597551 7.4459795 24.790285 26.4271999 36.988239 37.1689625 13.134833 11.5670331 29.494126 16.4153314 39.6452 31.0291093 10.794486 15.5410484 13.871747 39.0937104 21.048321 57.1476604 7.487633 18.836832 19.913326 34.858735 23.182222 55.35803 4.764941 29.761398-2.556979 55.411016-6.359119 77.454877-4.575158 26.639147-8.710575 53.39884-23.014657 70.084404-13.13113 15.315854-33.187951 17.359823-52.037566 25.513177-16.431503 7.110837-33.169435 22.314094-52.257899 24.817724-17.618341 2.311552-36.214295-7.986446-54.810249-8.965378-18.173803-.959063-37.193761 7.439356-55.131492 3.917054-13.964324-2.727499-25.820668-16.623305-38.191741-20.39597-13.937476-4.252196-28.849789 1.245191-40.7135396-4.435001-13.6680773-6.545203-22.9026391-23.951388-33.7424872-32.549832-12.5858515-9.984051-27.8212584-12.940718-36.4809167-25.952968-9.4261964-14.162064-10.1862541-35.780706-14.8160329-53.873072-4.33630952-16.927979-13.8847076-33.801647-13.8847076-54.461226 0-22.069031 10.9639013-40.858174 17.9590241-60.673937 6.582229-18.644754 10.0251699-42.4318832 21.7889371-58.1173205 10.6167373-14.1580908 27.5629684-18.2208588 41.6411621-29.2434518 12.8404383-10.0529334 23.9802357-28.5638953 39.1267687-35.4614607 14.068011-6.4074369 30.733733-.8226212 46.336671-4.0733654z" opacity=".09" transform="translate(15 19)"/></g><path d="m452.275707 219.751309c5.224337 32.583985-2.714145 60.615136-6.720301 84.670931-4.860729 29.192808-9.173276 58.553097-24.57958 76.745677-14.145671 16.703999-35.841298 18.674929-56.175699 27.48583-17.713466 7.674701-35.734246 24.389419-56.306747 27.014199-18.987019 2.421122-39.024258-9.152564-59.046732-10.3169-19.581344-1.138878-40.077247 8.166429-59.376194 4.247347-14.940258-3.033436-27.57889-18.455192-40.796159-22.576592-14.912572-4.650644-30.910432 1.58773-43.585979-4.576952-14.6292519-7.114642-24.4208469-26.271919-36.0037222-35.595985-13.4673652-10.840784-29.8768232-13.821966-39.1211593-27.956119-10.0592257-15.37888-10.6701621-39.01262-15.5917998-58.693782-4.5903292-18.360062-14.9716347-36.624994-14.9716347-59.081 0-23.91913 11.8938808-44.219305 19.3330935-65.711953 7.0045434-20.237203 10.4809748-46.23847 23.0097866-63.2881522 11.3133988-15.3949585 29.5122915-19.6047896 44.5245323-31.6192886 13.6943896-10.9600313 25.4904466-31.3781142 41.6535006-38.9349085 15.01224-7.0195115 32.852139-.7476402 49.512616-4.3652545 15.69516-3.4085966 31.402318-17.1984062 48.158773-17.1984062 16.756456 0 32.05663 13.8367046 47.190689 17.331052 16.515587 3.8132335 34.082318-2.0553408 48.550991 5.392925 15.713618 8.0887175 26.619111 28.9811099 39.750553 40.6820822 14.137365 12.5973368 31.842525 17.6887939 42.778472 33.6237148 11.623482 16.937134 14.829514 42.760201 22.581578 62.445382 8.087986 20.53733 21.647638 37.921976 25.232045 60.274813z" opacity="0" stroke-width="5"/></g></svg>